<?xml version='1.0' encoding='utf-8'?>
<svg xmlns="http://www.w3.org/2000/svg" version="1.1" width="4096" height="4096" viewBox="0 0 4096 4096"><rect x="0" y="0" width="4096" height="4096" fill="#0b0c0d" /><g fill="#b47a3c" fill-rule="evenodd" stroke="none"><path d="M 1686 3585 L 1646 3585 L 1646 3592 L 1650 3596 L 1650 3608 L 1624 3660 L 1613 3660 L 1611 3657 L 1610 3641 L 1605 3617 L 1605 3601 L 1615 3592 L 1615 3585 L 1563 3585 L 1563 3593 L 1571 3604 L 1577 3626 L 1591 3697 L 1591 3713 L 1574 3744 L 1560 3762 L 1549 3762 L 1543 3758 L 1534 3758 L 1530 3761 L 1528 3765 L 1528 3776 L 1532 3781 L 1536 3783 L 1550 3783 L 1566 3774 L 1578 3762 L 1600 3730 L 1623 3688 L 1667 3615 L 1678 3600 L 1686 3593 Z M 2575 3563 L 2563 3565 L 2547 3571 L 2536 3578 L 2522 3591 L 2513 3604 L 2505 3624 L 2503 3649 L 2505 3664 L 2510 3678 L 2521 3695 L 2531 3705 L 2543 3713 L 2562 3720 L 2585 3721 L 2616 3712 L 2626 3707 L 2641 3697 L 2642 3687 L 2632 3687 L 2621 3693 L 2602 3700 L 2577 3701 L 2571 3699 L 2560 3692 L 2549 3678 L 2544 3662 L 2544 3646 L 2549 3642 L 2639 3641 L 2642 3640 L 2646 3634 L 2646 3617 L 2638 3593 L 2632 3584 L 2624 3576 L 2615 3570 L 2602 3565 L 2592 3563 Z M 2604 3588 L 2604 3589 L 2606 3592 L 2606 3594 L 2607 3595 L 2607 3613 L 2606 3614 L 2606 3615 L 2605 3616 L 2605 3617 L 2599 3623 L 2598 3623 L 2597 3624 L 2595 3624 L 2594 3625 L 2551 3625 L 2550 3624 L 2548 3624 L 2545 3621 L 2545 3610 L 2546 3609 L 2546 3606 L 2548 3603 L 2548 3601 L 2550 3599 L 2550 3598 L 2551 3597 L 2551 3596 L 2553 3594 L 2553 3593 L 2557 3589 L 2557 3588 L 2560 3585 L 2561 3585 L 2564 3582 L 2565 3582 L 2568 3580 L 2570 3580 L 2571 3579 L 2574 3579 L 2575 3578 L 2588 3578 L 2589 3579 L 2592 3579 L 2593 3580 L 2594 3580 L 2595 3581 L 2596 3581 L 2597 3582 L 2598 3582 Z M 2383 3562 L 2382 3563 L 2371 3564 L 2355 3569 L 2342 3576 L 2325 3591 L 2317 3602 L 2309 3620 L 2306 3633 L 2306 3650 L 2312 3672 L 2317 3682 L 2325 3693 L 2336 3704 L 2351 3713 L 2359 3715 L 2369 3720 L 2380 3722 L 2392 3722 L 2393 3721 L 2405 3720 L 2417 3715 L 2427 3713 L 2435 3709 L 2442 3704 L 2457 3689 L 2465 3677 L 2470 3665 L 2473 3653 L 2474 3632 L 2472 3622 L 2465 3604 L 2458 3593 L 2446 3581 L 2436 3574 L 2415 3565 L 2398 3563 L 2397 3562 Z M 2379 3579 L 2396 3579 L 2397 3580 L 2400 3580 L 2403 3582 L 2405 3582 L 2412 3586 L 2422 3596 L 2422 3597 L 2426 3602 L 2430 3610 L 2430 3612 L 2432 3615 L 2432 3618 L 2433 3619 L 2433 3629 L 2434 3630 L 2434 3662 L 2433 3663 L 2433 3671 L 2432 3672 L 2431 3677 L 2423 3690 L 2414 3699 L 2405 3704 L 2402 3704 L 2401 3705 L 2381 3705 L 2380 3704 L 2377 3704 L 2369 3700 L 2358 3689 L 2358 3688 L 2356 3686 L 2351 3676 L 2351 3674 L 2348 3667 L 2347 3660 L 2346 3659 L 2346 3651 L 2345 3650 L 2345 3626 L 2346 3625 L 2347 3614 L 2348 3613 L 2350 3605 L 2352 3602 L 2352 3600 L 2357 3592 L 2361 3588 L 2362 3588 L 2365 3585 Z M 1996 3578 L 1996 3585 L 2014 3599 L 2017 3607 L 2017 3691 L 2009 3703 L 2000 3707 L 2002 3715 L 2070 3714 L 2070 3707 L 2059 3701 L 2053 3693 L 2051 3621 L 2057 3605 L 2070 3592 L 2087 3585 L 2106 3588 L 2116 3601 L 2119 3617 L 2119 3690 L 2115 3699 L 2102 3707 L 2102 3714 L 2172 3714 L 2172 3707 L 2159 3698 L 2155 3686 L 2155 3614 L 2168 3596 L 2189 3585 L 2209 3588 L 2217 3597 L 2221 3610 L 2222 3687 L 2218 3699 L 2205 3707 L 2205 3715 L 2276 3714 L 2276 3707 L 2266 3703 L 2258 3690 L 2258 3618 L 2255 3599 L 2248 3582 L 2232 3567 L 2214 3562 L 2197 3564 L 2176 3573 L 2159 3586 L 2148 3586 L 2134 3569 L 2115 3562 L 2085 3567 L 2063 3580 L 2052 3580 L 2047 3565 L 2037 3565 Z M 1456 3506 L 1422 3510 L 1416 3513 L 1416 3521 L 1422 3523 L 1426 3527 L 1426 3544 L 1411 3617 L 1408 3646 L 1402 3666 L 1401 3681 L 1398 3690 L 1398 3699 L 1400 3703 L 1409 3711 L 1432 3719 L 1449 3719 L 1460 3715 L 1468 3714 L 1483 3707 L 1494 3699 L 1506 3687 L 1519 3668 L 1526 3651 L 1529 3637 L 1529 3617 L 1526 3606 L 1518 3593 L 1511 3587 L 1494 3581 L 1480 3581 L 1462 3588 L 1450 3587 L 1450 3570 L 1459 3520 L 1459 3509 Z M 1483 3599 L 1484 3600 L 1487 3601 L 1494 3608 L 1494 3609 L 1496 3612 L 1496 3614 L 1497 3615 L 1497 3620 L 1498 3621 L 1498 3637 L 1497 3638 L 1497 3645 L 1496 3646 L 1496 3650 L 1495 3651 L 1495 3653 L 1494 3654 L 1494 3657 L 1493 3658 L 1492 3663 L 1490 3666 L 1490 3668 L 1489 3669 L 1486 3676 L 1484 3678 L 1483 3681 L 1480 3684 L 1480 3685 L 1475 3690 L 1475 3691 L 1466 3699 L 1465 3699 L 1458 3703 L 1456 3703 L 1455 3704 L 1441 3704 L 1440 3703 L 1438 3703 L 1432 3698 L 1432 3697 L 1430 3694 L 1430 3681 L 1431 3680 L 1431 3676 L 1432 3675 L 1432 3671 L 1433 3670 L 1433 3666 L 1434 3665 L 1434 3659 L 1435 3658 L 1435 3653 L 1436 3652 L 1436 3649 L 1437 3648 L 1437 3643 L 1438 3642 L 1438 3636 L 1439 3635 L 1439 3631 L 1440 3630 L 1440 3628 L 1441 3627 L 1442 3622 L 1445 3618 L 1445 3617 L 1457 3605 L 1458 3605 L 1460 3603 L 1461 3603 L 1464 3601 L 1469 3600 L 1470 3599 Z M 1941 3506 L 1919 3494 L 1893 3488 L 1873 3486 L 1788 3488 L 1788 3495 L 1798 3501 L 1805 3508 L 1809 3523 L 1809 3686 L 1806 3696 L 1800 3702 L 1789 3707 L 1789 3715 L 1871 3714 L 1871 3707 L 1861 3702 L 1854 3695 L 1851 3688 L 1851 3631 L 1858 3626 L 1887 3626 L 1908 3622 L 1922 3617 L 1940 3606 L 1954 3592 L 1964 3572 L 1966 3548 L 1959 3527 L 1953 3518 Z M 1859 3503 L 1879 3503 L 1880 3504 L 1884 3504 L 1885 3505 L 1888 3505 L 1889 3506 L 1891 3506 L 1892 3507 L 1894 3507 L 1896 3508 L 1898 3510 L 1901 3511 L 1904 3514 L 1905 3514 L 1912 3521 L 1912 3522 L 1916 3527 L 1920 3535 L 1920 3538 L 1921 3539 L 1921 3545 L 1922 3546 L 1922 3568 L 1921 3569 L 1921 3576 L 1920 3577 L 1920 3580 L 1918 3584 L 1916 3586 L 1916 3587 L 1913 3590 L 1913 3591 L 1905 3599 L 1904 3599 L 1901 3602 L 1893 3606 L 1891 3606 L 1887 3608 L 1883 3608 L 1882 3609 L 1858 3609 L 1857 3608 L 1855 3608 L 1851 3604 L 1851 3602 L 1850 3601 L 1850 3513 L 1851 3512 L 1851 3510 L 1852 3508 L 1855 3505 Z M 1953 3017 L 1935 3039 L 1931 3051 L 1931 3068 L 1938 3088 L 1956 3110 L 1956 3122 L 1925 3147 L 1910 3168 L 1901 3190 L 1901 3227 L 1913 3255 L 1935 3275 L 1955 3284 L 1978 3288 L 2008 3286 L 2027 3279 L 2053 3263 L 2072 3246 L 2083 3246 L 2108 3273 L 2119 3279 L 2134 3282 L 2181 3282 L 2182 3273 L 2168 3263 L 2114 3205 L 2114 3193 L 2156 3135 L 2177 3119 L 2177 3111 L 2093 3111 L 2093 3119 L 2108 3126 L 2115 3133 L 2117 3151 L 2100 3179 L 2088 3179 L 2024 3116 L 2024 3104 L 2047 3088 L 2069 3061 L 2074 3046 L 2074 3034 L 2065 3015 L 2040 3000 L 2007 2997 L 1980 3003 Z M 1972 3140 L 1985 3140 L 1987 3141 L 2032 3185 L 2032 3186 L 2041 3195 L 2041 3196 L 2056 3211 L 2056 3212 L 2060 3216 L 2060 3228 L 2053 3235 L 2052 3235 L 2043 3242 L 2031 3248 L 2029 3248 L 2028 3249 L 2026 3249 L 2019 3252 L 2015 3252 L 2014 3253 L 1992 3253 L 1991 3252 L 1980 3249 L 1974 3246 L 1972 3244 L 1971 3244 L 1960 3233 L 1960 3232 L 1957 3229 L 1952 3219 L 1952 3217 L 1950 3213 L 1950 3209 L 1949 3208 L 1949 3202 L 1948 3201 L 1948 3188 L 1949 3187 L 1949 3181 L 1950 3180 L 1951 3173 L 1954 3167 L 1954 3165 L 1963 3150 Z M 2019 3017 L 2020 3018 L 2022 3018 L 2023 3019 L 2024 3019 L 2026 3021 L 2027 3021 L 2035 3029 L 2035 3030 L 2037 3032 L 2037 3033 L 2038 3034 L 2038 3036 L 2040 3039 L 2040 3055 L 2039 3056 L 2039 3058 L 2038 3059 L 2038 3061 L 2037 3062 L 2037 3063 L 2036 3064 L 2036 3065 L 2035 3066 L 2035 3067 L 2034 3068 L 2033 3071 L 2031 3073 L 2031 3074 L 2027 3078 L 2027 3079 L 2017 3089 L 2016 3089 L 2013 3092 L 2012 3092 L 2009 3094 L 1998 3094 L 1997 3093 L 1996 3093 L 1987 3084 L 1987 3083 L 1984 3080 L 1984 3079 L 1982 3077 L 1981 3074 L 1979 3072 L 1979 3070 L 1977 3067 L 1977 3065 L 1976 3064 L 1976 3062 L 1975 3061 L 1975 3058 L 1974 3057 L 1974 3045 L 1975 3044 L 1975 3041 L 1976 3040 L 1976 3038 L 1978 3035 L 1978 3033 L 1980 3031 L 1980 3030 L 1982 3028 L 1982 3027 L 1985 3024 L 1986 3024 L 1991 3020 L 1992 3020 L 1993 3019 L 1995 3019 L 1996 3018 L 1999 3018 L 2000 3017 Z M 2644 2977 L 2644 2985 L 2661 2995 L 2669 3003 L 2673 3014 L 2673 3243 L 2669 3256 L 2644 3275 L 2644 3282 L 2650 3285 L 2750 3285 L 2757 3282 L 2757 3275 L 2738 3264 L 2729 3248 L 2729 3160 L 2735 3151 L 2749 3151 L 2761 3160 L 2814 3243 L 2839 3273 L 2866 3286 L 2909 3288 L 2922 3285 L 2924 3276 L 2900 3261 L 2883 3245 L 2814 3149 L 2814 3138 L 2853 3109 L 2866 3091 L 2873 3074 L 2874 3039 L 2860 3010 L 2833 2988 L 2799 2977 Z M 2736 3003 L 2738 3003 L 2739 3002 L 2744 3002 L 2745 3001 L 2761 3001 L 2762 3002 L 2771 3002 L 2772 3003 L 2775 3003 L 2776 3004 L 2781 3005 L 2790 3010 L 2800 3019 L 2800 3020 L 2805 3026 L 2809 3034 L 2809 3036 L 2811 3039 L 2812 3044 L 2814 3047 L 2814 3049 L 2816 3053 L 2816 3057 L 2817 3058 L 2817 3071 L 2816 3072 L 2816 3077 L 2815 3078 L 2811 3092 L 2809 3095 L 2809 3097 L 2804 3106 L 2794 3116 L 2785 3121 L 2783 3121 L 2779 3123 L 2776 3123 L 2775 3124 L 2771 3124 L 2770 3125 L 2760 3125 L 2759 3126 L 2741 3126 L 2740 3125 L 2736 3125 L 2734 3124 L 2729 3119 L 2729 3116 L 2728 3115 L 2728 3033 L 2729 3032 L 2729 3012 L 2730 3011 L 2730 3009 Z M 3521 2976 L 3522 2985 L 3544 3001 L 3549 3028 L 3548 3246 L 3542 3259 L 3523 3274 L 3523 3282 L 3733 3284 L 3739 3281 L 3750 3235 L 3750 3215 L 3742 3215 L 3706 3252 L 3695 3257 L 3616 3257 L 3606 3247 L 3606 3143 L 3610 3137 L 3671 3137 L 3684 3143 L 3699 3159 L 3706 3159 L 3708 3155 L 3708 3093 L 3705 3087 L 3698 3087 L 3684 3101 L 3668 3108 L 3614 3109 L 3607 3104 L 3607 3007 L 3620 3001 L 3694 3002 L 3707 3011 L 3720 3037 L 3730 3040 L 3733 3035 L 3731 2977 L 3726 2974 Z M 3148 2975 L 3148 2984 L 3175 3006 L 3181 3020 L 3181 3240 L 3174 3256 L 3153 3272 L 3152 3282 L 3158 3285 L 3243 3282 L 3243 3274 L 3222 3258 L 3217 3247 L 3216 3081 L 3217 3068 L 3230 3067 L 3410 3278 L 3423 3289 L 3435 3288 L 3438 3013 L 3443 3002 L 3463 2983 L 3463 2976 L 3370 2976 L 3370 2983 L 3395 3002 L 3401 3015 L 3403 3164 L 3390 3166 L 3229 2977 Z M 2980 2974 L 2975 2977 L 2975 2985 L 2995 2999 L 3001 3013 L 3001 3247 L 2994 3261 L 2973 3275 L 2973 3282 L 2976 3284 L 3081 3285 L 3085 3283 L 3085 3275 L 3069 3266 L 3061 3258 L 3057 3246 L 3057 3012 L 3063 2998 L 3080 2984 L 3080 2976 L 3076 2974 Z M 2525 2989 L 2499 2978 L 2473 2973 L 2343 2974 L 2339 2976 L 2339 2984 L 2354 2993 L 2363 3002 L 2368 3015 L 2368 3243 L 2362 3256 L 2340 3274 L 2342 3283 L 2471 3284 L 2500 3281 L 2521 3275 L 2543 3264 L 2562 3248 L 2575 3231 L 2585 3197 L 2584 3179 L 2580 3164 L 2570 3146 L 2556 3131 L 2527 3114 L 2527 3103 L 2547 3084 L 2556 3068 L 2560 3051 L 2558 3030 L 2544 3005 Z M 2427 3135 L 2432 3133 L 2447 3133 L 2448 3134 L 2478 3134 L 2479 3135 L 2483 3135 L 2491 3138 L 2494 3138 L 2502 3142 L 2516 3155 L 2521 3163 L 2521 3165 L 2523 3168 L 2523 3170 L 2525 3174 L 2525 3177 L 2526 3178 L 2526 3183 L 2527 3184 L 2527 3201 L 2526 3202 L 2525 3213 L 2518 3229 L 2515 3233 L 2503 3244 L 2494 3249 L 2492 3249 L 2486 3252 L 2478 3253 L 2477 3254 L 2472 3254 L 2471 3255 L 2465 3255 L 2464 3256 L 2444 3256 L 2443 3255 L 2437 3255 L 2436 3254 L 2430 3253 L 2425 3248 L 2423 3243 L 2423 3140 Z M 2431 3001 L 2433 3001 L 2437 2999 L 2442 2999 L 2443 2998 L 2455 2998 L 2456 2999 L 2466 3000 L 2467 3001 L 2475 3003 L 2479 3005 L 2481 3007 L 2484 3008 L 2487 3011 L 2488 3011 L 2496 3020 L 2500 3028 L 2500 3030 L 2501 3031 L 2501 3033 L 2503 3037 L 2503 3040 L 2504 3041 L 2504 3063 L 2503 3064 L 2502 3071 L 2501 3072 L 2499 3080 L 2495 3087 L 2492 3090 L 2492 3091 L 2483 3099 L 2475 3103 L 2469 3104 L 2468 3105 L 2463 3105 L 2462 3106 L 2435 3106 L 2434 3105 L 2430 3105 L 2428 3104 L 2424 3100 L 2423 3098 L 2423 3010 L 2425 3006 Z M 423 2972 L 423 2981 L 452 3009 L 449 3132 L 438 3248 L 407 3274 L 408 3282 L 502 3282 L 502 3273 L 482 3259 L 475 3245 L 483 3078 L 495 3079 L 588 3283 L 602 3288 L 629 3239 L 700 3074 L 713 3078 L 724 3250 L 698 3274 L 698 3282 L 809 3281 L 809 3274 L 789 3262 L 780 3247 L 770 3126 L 766 3012 L 771 2999 L 794 2982 L 793 2973 L 707 2975 L 616 3187 L 605 3187 L 506 2972 Z M 1704 2974 L 1673 2978 L 1642 2969 L 1603 2970 L 1566 2987 L 1542 3014 L 1531 3047 L 1531 3065 L 1541 3097 L 1553 3113 L 1573 3130 L 1630 3159 L 1654 3175 L 1672 3197 L 1675 3222 L 1667 3245 L 1654 3257 L 1637 3265 L 1606 3265 L 1569 3247 L 1551 3228 L 1536 3203 L 1527 3202 L 1525 3234 L 1528 3269 L 1534 3282 L 1565 3279 L 1603 3291 L 1647 3290 L 1672 3282 L 1689 3272 L 1717 3240 L 1726 3216 L 1728 3187 L 1722 3163 L 1713 3147 L 1682 3119 L 1606 3080 L 1590 3064 L 1582 3044 L 1583 3026 L 1594 3007 L 1613 2996 L 1640 2995 L 1657 3000 L 1675 3011 L 1689 3028 L 1699 3048 L 1710 3051 L 1709 2984 Z M 1427 2974 L 1398 2979 L 1364 2969 L 1322 2971 L 1286 2989 L 1264 3015 L 1255 3038 L 1253 3065 L 1265 3100 L 1293 3129 L 1377 3175 L 1396 3199 L 1399 3223 L 1394 3241 L 1376 3259 L 1363 3265 L 1329 3265 L 1291 3244 L 1274 3225 L 1259 3202 L 1252 3202 L 1250 3224 L 1253 3266 L 1260 3282 L 1289 3279 L 1330 3292 L 1378 3289 L 1408 3276 L 1429 3258 L 1439 3244 L 1450 3216 L 1451 3182 L 1445 3161 L 1437 3148 L 1405 3119 L 1327 3080 L 1312 3065 L 1305 3048 L 1306 3025 L 1317 3007 L 1341 2995 L 1363 2995 L 1398 3011 L 1409 3023 L 1422 3048 L 1432 3051 L 1433 2992 Z M 1065 2973 L 1037 2969 L 1001 2970 L 971 2976 L 929 2994 L 904 3012 L 882 3035 L 869 3055 L 859 3077 L 853 3099 L 850 3138 L 854 3164 L 862 3190 L 881 3224 L 902 3248 L 922 3263 L 956 3280 L 997 3289 L 1035 3289 L 1061 3284 L 1092 3273 L 1127 3252 L 1151 3230 L 1169 3205 L 1181 3179 L 1189 3146 L 1190 3117 L 1185 3087 L 1169 3049 L 1150 3023 L 1126 3001 L 1093 2982 Z M 999 2998 L 1032 2998 L 1041 3000 L 1063 3008 L 1081 3019 L 1099 3038 L 1111 3059 L 1117 3075 L 1125 3115 L 1125 3152 L 1121 3177 L 1115 3197 L 1103 3221 L 1085 3241 L 1075 3248 L 1058 3256 L 1030 3264 L 1014 3264 L 980 3254 L 962 3244 L 944 3226 L 933 3209 L 924 3188 L 915 3144 L 915 3114 L 918 3088 L 926 3062 L 935 3043 L 946 3028 L 964 3011 L 978 3004 Z M 1873 2470 L 1873 2479 L 1881 2489 L 1937 2527 L 1980 2546 L 2013 2554 L 2034 2556 L 2084 2554 L 2127 2543 L 2173 2521 L 2216 2492 L 2228 2479 L 2226 2468 L 2214 2456 L 2191 2440 L 2166 2426 L 2125 2408 L 2100 2401 L 2073 2397 L 2027 2397 L 2002 2401 L 1967 2411 L 1944 2421 L 1909 2440 L 1882 2459 Z M 3100 1715 L 3089 1716 L 3075 1728 L 2999 1772 L 2999 1780 L 3025 1811 L 3048 1851 L 3057 1882 L 3059 1928 L 3056 1947 L 3048 1972 L 3037 1994 L 3025 2011 L 3001 2033 L 2978 2047 L 2949 2055 L 2932 2057 L 2932 2065 L 2938 2071 L 2958 2082 L 2979 2087 L 3013 2086 L 3044 2077 L 3077 2059 L 3097 2043 L 3125 2012 L 3144 1981 L 3154 1959 L 3162 1932 L 3167 1901 L 3167 1860 L 3162 1827 L 3155 1803 L 3135 1759 L 3119 1736 Z M 998 1714 L 974 1741 L 956 1772 L 945 1797 L 934 1837 L 931 1890 L 937 1931 L 945 1958 L 964 1997 L 979 2018 L 1001 2042 L 1031 2065 L 1057 2078 L 1085 2086 L 1119 2087 L 1143 2081 L 1162 2070 L 1167 2065 L 1167 2057 L 1124 2048 L 1089 2026 L 1072 2008 L 1059 1988 L 1048 1963 L 1042 1940 L 1041 1892 L 1050 1855 L 1071 1815 L 1100 1781 L 1100 1772 L 1048 1743 L 1007 1714 Z M 1298 1439 L 1281 1550 L 1339 1659 L 1382 1474 L 1458 1467 L 1526 1534 L 1414 1665 L 1336 1846 L 1251 2384 L 1523 2598 L 1795 2734 L 1475 2454 L 1354 2226 L 1362 2072 L 1432 1933 L 1422 2123 L 1486 2273 L 1532 2170 L 1582 2335 L 1722 2445 L 1730 2169 L 1814 1900 L 1726 1885 L 1669 1797 L 1614 1784 L 1683 1746 L 1844 1757 L 1912 1808 L 1801 2187 L 1822 2419 L 2002 2311 L 1999 2216 L 1904 2204 L 1883 2132 L 1927 2066 L 2042 2041 L 2175 2067 L 2217 2130 L 2199 2202 L 2099 2218 L 2100 2316 L 2292 2408 L 2298 2182 L 2187 1821 L 2223 1769 L 2387 1743 L 2485 1771 L 2369 1886 L 2284 1900 L 2369 2165 L 2377 2444 L 2517 2336 L 2564 2168 L 2612 2276 L 2642 2244 L 2677 1927 L 2752 2143 L 2717 2321 L 2579 2503 L 2304 2732 L 2612 2575 L 2847 2390 L 2770 1868 L 2686 1668 L 2574 1533 L 2640 1467 L 2718 1476 L 2760 1660 L 2818 1483 L 2744 1381 L 2606 1364 L 2474 1467 L 2133 1405 L 1886 1410 L 1627 1467 L 1539 1383 L 1429 1357 Z M 2903 807 L 2826 814 L 2771 842 L 2735 883 L 2709 961 L 2713 1031 L 2744 1101 L 2790 1153 L 2913 1247 L 2960 1292 L 3009 1373 L 3013 1438 L 2993 1498 L 2953 1540 L 2869 1587 L 2844 1649 L 2809 1704 L 2813 1715 L 2846 1720 L 2903 1717 L 2967 1701 L 3022 1677 L 3073 1642 L 3108 1606 L 3137 1561 L 3158 1509 L 3168 1448 L 3155 1349 L 3133 1296 L 3102 1247 L 3019 1165 L 2870 1065 L 2835 1018 L 2829 968 L 2840 929 L 2865 903 L 2907 893 L 2961 900 L 3012 936 L 3029 978 L 3014 1044 L 3032 1046 L 3054 1037 L 3081 998 L 3081 935 L 3051 880 L 3023 853 L 2973 824 Z M 1209 806 L 1133 821 L 1064 863 L 1019 930 L 1017 995 L 1045 1037 L 1067 1046 L 1086 1044 L 1070 983 L 1087 936 L 1139 899 L 1204 894 L 1239 906 L 1263 936 L 1271 987 L 1262 1023 L 1228 1065 L 1074 1169 L 1003 1239 L 969 1290 L 946 1343 L 933 1400 L 932 1451 L 954 1544 L 983 1596 L 1019 1637 L 1118 1696 L 1195 1717 L 1250 1720 L 1284 1715 L 1288 1704 L 1254 1648 L 1234 1595 L 1222 1581 L 1146 1540 L 1115 1511 L 1090 1463 L 1086 1389 L 1103 1341 L 1135 1295 L 1189 1244 L 1301 1159 L 1344 1113 L 1381 1042 L 1390 973 L 1373 902 L 1330 845 L 1271 813 Z M 1205 1414 L 1209 1468 L 1225 1485 L 1250 1409 L 1305 1342 L 1401 1294 L 1511 1293 L 1590 1228 L 1639 1144 L 1652 1148 L 1639 1227 L 1564 1326 L 1631 1383 L 1733 1332 L 1788 1216 L 1801 1219 L 1805 1265 L 1776 1365 L 1822 1370 L 1891 1342 L 1975 1243 L 2037 1213 L 2110 1231 L 2203 1337 L 2276 1370 L 2324 1365 L 2294 1271 L 2297 1220 L 2310 1216 L 2365 1330 L 2468 1383 L 2536 1326 L 2464 1232 L 2449 1147 L 2462 1145 L 2503 1218 L 2599 1297 L 2681 1290 L 2760 1318 L 2837 1387 L 2875 1484 L 2894 1452 L 2888 1390 L 2846 1315 L 2766 1250 L 2607 1176 L 2555 1107 L 2541 991 L 2582 700 L 2559 598 L 2509 503 L 2427 413 L 2321 342 L 2202 297 L 2070 279 L 1943 289 L 1807 331 L 1684 406 L 1597 497 L 1549 583 L 1521 685 L 1522 796 L 1559 1001 L 1540 1118 L 1477 1187 L 1285 1284 L 1232 1344 Z M 2458 905 L 2458 916 L 2453 921 L 2429 934 L 2420 941 L 2417 948 L 2416 977 L 2405 1014 L 2392 1037 L 2373 1055 L 2362 1061 L 2342 1068 L 2318 1073 L 2304 1074 L 2270 1073 L 2251 1068 L 2230 1059 L 2218 1059 L 2207 1069 L 2197 1083 L 2185 1082 L 2187 1057 L 2195 1033 L 2206 1012 L 2229 981 L 2241 969 L 2266 950 L 2293 937 L 2335 925 L 2440 903 L 2455 903 Z M 1642 904 L 1659 903 L 1676 906 L 1705 914 L 1768 927 L 1808 939 L 1836 954 L 1850 964 L 1869 982 L 1893 1013 L 1909 1048 L 1913 1062 L 1914 1083 L 1902 1084 L 1890 1067 L 1881 1059 L 1870 1059 L 1848 1068 L 1828 1073 L 1795 1074 L 1781 1073 L 1753 1067 L 1724 1054 L 1706 1036 L 1693 1011 L 1686 986 L 1682 961 L 1682 947 L 1680 942 L 1670 934 L 1645 919 L 1642 916 Z" /></g></svg>